<svg width="205" height="59" viewBox="0 0 205 59" fill="none" xmlns="http://www.w3.org/2000/svg">
<path d="M196.396 59H7.55371C3.40106 59 0 55.6794 0 51.625V7.375C0 3.3206 3.40106 7.56029e-07 7.55371 7.56029e-07H196.396C200.549 7.56029e-07 203.95 3.3206 203.95 7.375V51.625C203.95 55.6794 200.549 59 196.396 59Z" fill="url(#paint0_linear_2_2)"/>
<path d="M196.667 1.18184C200.169 1.18184 203.019 3.96038 203.019 7.375V51.625C203.019 55.0396 200.169 57.8182 196.667 57.8182H7.5641C4.06192 57.8182 1.21215 55.0396 1.21215 51.625V7.375C1.21215 3.96038 4.06192 1.18184 7.5641 1.18184H196.667ZM196.667 1.6655e-06H7.5641C3.40574 1.6655e-06 0 3.3206 0 7.375V51.625C0 55.6794 3.40574 59 7.5641 59H196.667C200.825 59 204.231 55.6794 204.231 51.625V7.375C204.231 3.3206 200.825 1.6655e-06 196.667 1.6655e-06Z" fill="url(#paint1_linear_2_2)"/>
<path d="M45.5783 29.1814C45.5344 24.4275 49.5706 22.1147 49.7552 22.007C47.4693 18.7576 43.9263 18.3136 42.6812 18.2782C39.7055 17.9729 36.819 20.0143 35.3032 20.0143C33.7571 20.0143 31.4228 18.3077 28.907 18.3578C25.6695 18.4065 22.6409 20.234 20.9798 23.0719C17.5518 28.8584 20.1084 37.3617 23.3928 42.0389C25.0357 44.3296 26.9554 46.8873 29.4682 46.7973C31.9266 46.6985 32.8449 45.2692 35.8115 45.2692C38.7509 45.2692 39.6132 46.7973 42.1759 46.7398C44.8143 46.6985 46.4754 44.4388 48.0608 42.1275C49.9594 39.502 50.7219 36.9163 50.7521 36.7835C50.6901 36.7629 45.6282 34.8793 45.5783 29.1814Z" fill="white"/>
<path d="M40.7372 15.2013C42.0594 13.5892 42.9641 11.3958 42.713 9.17006C40.7993 9.25266 38.406 10.4607 37.0278 12.0375C35.8085 13.4269 34.7192 15.7043 35.0006 17.846C37.1503 18.0024 39.3575 16.7884 40.7372 15.2013Z" fill="white"/>
<path d="M81.1552 36.9169H77.7196L75.8377 31.1511H69.2962L67.5035 36.9169H64.1587L70.6396 17.2876H74.6425L81.1552 36.9169ZM75.2704 28.7321L73.5684 23.6065C73.3884 23.0829 73.051 21.8498 72.5533 19.9087H72.4928C72.2946 20.7435 71.9754 21.9766 71.5367 23.6065L69.865 28.7321H75.2704Z" fill="white"/>
<path d="M97.822 29.6658C97.822 32.073 97.1548 33.9758 95.8205 35.3726C94.6254 36.616 93.1413 37.237 91.3698 37.237C89.4576 37.237 88.0839 36.5674 87.2473 35.2281H87.1868V42.6842H83.9615V27.4224C83.9615 25.909 83.9206 24.3558 83.842 22.7628H86.6785L86.8585 25.0063H86.9191C87.9947 23.316 89.627 22.4723 91.8176 22.4723C93.5301 22.4723 94.9597 23.1316 96.1034 24.4517C97.2501 25.7733 97.822 27.5109 97.822 29.6658ZM94.5361 29.7809C94.5361 28.4032 94.2184 27.2675 93.58 26.3736C92.8826 25.4414 91.9462 24.9753 90.7722 24.9753C89.9765 24.9753 89.2533 25.2349 88.6074 25.7468C87.9599 26.263 87.5363 26.9371 87.3381 27.7719C87.2383 28.1613 87.1883 28.4799 87.1883 28.7307V31.0907C87.1883 32.1202 87.5121 32.989 88.1596 33.6985C88.8071 34.408 89.6482 34.762 90.683 34.762C91.8977 34.762 92.8433 34.3047 93.5195 33.3932C94.1972 32.4801 94.5361 31.2765 94.5361 29.7809Z" fill="white"/>
<path d="M114.519 29.6658C114.519 32.073 113.852 33.9758 112.516 35.3726C111.322 36.616 109.838 37.237 108.067 37.237C106.155 37.237 104.781 36.5674 103.946 35.2281H103.885V42.6842H100.66V27.4224C100.66 25.909 100.619 24.3558 100.541 22.7628H103.377L103.557 25.0063H103.618C104.692 23.316 106.324 22.4723 108.516 22.4723C110.227 22.4723 111.657 23.1316 112.803 24.4517C113.946 25.7733 114.519 27.5109 114.519 29.6658ZM111.233 29.7809C111.233 28.4032 110.914 27.2675 110.276 26.3736C109.578 25.4414 108.645 24.9753 107.469 24.9753C106.672 24.9753 105.95 25.2349 105.303 25.7468C104.655 26.263 104.233 26.9371 104.035 27.7719C103.937 28.1613 103.885 28.4799 103.885 28.7307V31.0907C103.885 32.1202 104.209 32.989 104.854 33.6985C105.501 34.4065 106.342 34.762 107.38 34.762C108.595 34.762 109.54 34.3047 110.217 33.3932C110.894 32.4801 111.233 31.2765 111.233 29.7809Z" fill="white"/>
<path d="M133.187 31.4122C133.187 33.0819 132.593 34.4404 131.399 35.4891C130.087 36.6352 128.261 37.2075 125.915 37.2075C123.749 37.2075 122.012 36.8004 120.697 35.9847L121.445 33.3637C122.861 34.1985 124.414 34.6174 126.107 34.6174C127.322 34.6174 128.267 34.349 128.947 33.815C129.623 33.2811 129.96 32.5642 129.96 31.6704C129.96 30.8739 129.682 30.2027 129.124 29.6585C128.569 29.1142 127.641 28.6083 126.346 28.1407C122.821 26.8589 121.06 24.9812 121.06 22.5121C121.06 20.8984 121.678 19.5754 122.914 18.5458C124.145 17.5148 125.788 17 127.842 17C129.674 17 131.196 17.3112 132.411 17.9322L131.605 20.4958C130.47 19.894 129.187 19.5931 127.752 19.5931C126.617 19.5931 125.73 19.8659 125.095 20.4087C124.558 20.894 124.289 21.4855 124.289 22.1861C124.289 22.962 124.596 23.6036 125.213 24.108C125.75 24.5741 126.726 25.0786 128.142 25.6229C129.874 26.3028 131.146 27.0979 131.965 28.0094C132.78 28.918 133.187 30.0552 133.187 31.4122Z" fill="white"/>
<path d="M143.851 25.1228H140.296V31.9948C140.296 33.7427 140.922 34.6159 142.178 34.6159C142.754 34.6159 143.232 34.5672 143.611 34.4699L143.7 36.8579C143.064 37.0895 142.228 37.206 141.192 37.206C139.918 37.206 138.922 36.8269 138.204 36.0702C137.488 35.3121 137.128 34.0406 137.128 32.2544V25.1198H135.01V22.7598H137.128V20.1683L140.296 19.2361V22.7598H143.851V25.1228Z" fill="white"/>
<path d="M159.891 29.7233C159.891 31.899 159.253 33.6852 157.979 35.082C156.643 36.5201 154.87 37.237 152.66 37.237C150.53 37.237 148.834 36.5482 147.57 35.1705C146.305 33.7929 145.672 32.0538 145.672 29.9579C145.672 27.7645 146.323 25.968 147.629 24.5712C148.931 23.1729 150.689 22.4737 152.899 22.4737C155.029 22.4737 156.743 23.1625 158.037 24.5417C159.274 25.8795 159.891 27.6067 159.891 29.7233ZM156.545 29.8251C156.545 28.5197 156.259 27.4002 155.68 26.4665C155.004 25.3367 154.037 24.7732 152.784 24.7732C151.488 24.7732 150.503 25.3382 149.827 26.4665C149.247 27.4017 148.961 28.5389 148.961 29.8841C148.961 31.1895 149.247 32.309 149.827 33.2412C150.524 34.3711 151.498 34.9345 152.756 34.9345C153.987 34.9345 154.954 34.3593 155.651 33.2117C156.246 32.2603 156.545 31.129 156.545 29.8251Z" fill="white"/>
<path d="M170.375 25.5285C170.056 25.4709 169.716 25.4414 169.359 25.4414C168.224 25.4414 167.347 25.8589 166.729 26.6952C166.192 27.4327 165.923 28.3649 165.923 29.4903V36.9169H162.699L162.73 27.2203C162.73 25.5889 162.689 24.1036 162.609 22.7643H165.418L165.536 25.4724H165.625C165.965 24.5417 166.503 23.7924 167.238 23.2304C167.956 22.7245 168.732 22.4723 169.569 22.4723C169.867 22.4723 170.136 22.4929 170.375 22.5298V25.5285Z" fill="white"/>
<path d="M184.8 29.1702C184.8 29.7337 184.762 30.2086 184.682 30.5965H175.006C175.044 31.9948 175.511 33.0642 176.41 33.8017C177.225 34.461 178.28 34.7914 179.575 34.7914C181.007 34.7914 182.315 34.5687 183.49 34.1218L183.995 36.3048C182.622 36.8889 181 37.1795 179.129 37.1795C176.877 37.1795 175.11 36.5334 173.825 35.2428C172.542 33.9522 171.899 32.219 171.899 30.0449C171.899 27.9106 172.496 26.1332 173.693 24.7157C174.946 23.2024 176.638 22.4457 178.768 22.4457C180.861 22.4457 182.445 23.2024 183.52 24.7157C184.372 25.9178 184.8 27.4046 184.8 29.1702ZM181.725 28.3545C181.746 27.4223 181.535 26.617 181.098 25.937C180.54 25.0623 179.682 24.6257 178.528 24.6257C177.473 24.6257 176.616 25.052 175.961 25.9075C175.424 26.5875 175.104 27.4032 175.006 28.3531H181.725V28.3545Z" fill="white"/>
<defs>
<linearGradient id="paint0_linear_2_2" x1="256.5" y1="59" x2="1.04335e-05" y2="-4.02293e-05" gradientUnits="userSpaceOnUse">
<stop stop-color="#682CA1"/>
<stop offset="1" stop-color="#198DCF"/>
</linearGradient>
<linearGradient id="paint1_linear_2_2" x1="204" y1="30" x2="6.0778e-07" y2="30" gradientUnits="userSpaceOnUse">
<stop stop-color="#1A8BCE"/>
<stop offset="1" stop-color="#5741AB"/>
</linearGradient>
</defs>
</svg>
