<svg width="205" height="59" viewBox="0 0 205 59" fill="none" xmlns="http://www.w3.org/2000/svg">
<path d="M196.396 59H7.55371C3.40106 59 0 55.6794 0 51.625V7.375C0 3.3206 3.40106 7.56029e-07 7.55371 7.56029e-07H196.396C200.549 7.56029e-07 203.95 3.3206 203.95 7.375V51.625C203.95 55.6794 200.549 59 196.396 59Z" fill="url(#paint0_linear_2_33)"/>
<path d="M196.667 1.18185C200.169 1.18185 203.019 3.96038 203.019 7.375V51.625C203.019 55.0396 200.169 57.8182 196.667 57.8182H7.5641C4.06192 57.8182 1.21215 55.0396 1.21215 51.625V7.375C1.21215 3.96038 4.06192 1.18185 7.5641 1.18185H196.667ZM196.667 5.4802e-06H7.5641C3.40574 5.4802e-06 0 3.3206 0 7.375V51.625C0 55.6794 3.40574 59 7.5641 59H196.667C200.825 59 204.231 55.6794 204.231 51.625V7.375C204.231 3.3206 200.825 5.4802e-06 196.667 5.4802e-06Z" fill="url(#paint1_linear_2_33)"/>
<path d="M103.934 23.8206C100.385 23.8206 97.4864 26.4572 97.4864 30.0949C97.4864 33.7031 100.385 36.3673 103.934 36.3673C107.489 36.3673 110.388 33.7031 110.388 30.0949C110.388 26.4572 107.489 23.8206 103.934 23.8206ZM103.934 33.8967C101.987 33.8967 100.312 32.3277 100.312 30.0949C100.312 27.8326 101.987 26.2913 103.934 26.2913C105.88 26.2913 107.563 27.8326 107.563 30.0949C107.563 32.3277 105.88 33.8967 103.934 33.8967V33.8967ZM89.8666 23.8206C86.3107 23.8206 83.4195 26.4572 83.4195 30.0949C83.4195 33.7031 86.3107 36.3673 89.8666 36.3673C93.4206 36.3673 96.3137 33.7031 96.3137 30.0949C96.3137 26.4572 93.4206 23.8206 89.8666 23.8206ZM89.8666 33.8967C87.9178 33.8967 86.2371 32.3277 86.2371 30.0949C86.2371 27.8326 87.9178 26.2913 89.8666 26.2913C91.8136 26.2913 93.4886 27.8326 93.4886 30.0949C93.4886 32.3277 91.8136 33.8967 89.8666 33.8967ZM73.1276 25.7437V28.4097H79.6484C79.4576 29.8995 78.9478 30.9947 78.1659 31.758C77.2142 32.6798 75.7318 33.7031 73.1276 33.7031C69.1147 33.7031 65.9724 30.5411 65.9724 26.6231C65.9724 22.7052 69.1147 19.5431 73.1276 19.5431C75.2974 19.5431 76.8762 20.371 78.0413 21.444L79.9656 19.5653C78.3359 18.046 76.168 16.8789 73.1276 16.8789C67.6248 16.8789 63 21.2504 63 26.6231C63 31.9958 67.6248 36.3673 73.1276 36.3673C76.1019 36.3673 78.3359 35.416 80.0921 33.6312C81.8918 31.8741 82.4527 29.4035 82.4527 27.4086C82.4527 26.7891 82.3998 26.2193 82.3054 25.7437H73.1276ZM141.576 27.8105C141.045 26.4074 139.408 23.8206 136.073 23.8206C132.768 23.8206 130.016 26.3632 130.016 30.0949C130.016 33.6091 132.74 36.3673 136.39 36.3673C139.341 36.3673 141.045 34.6103 141.745 33.587L139.555 32.1618C138.824 33.2053 137.829 33.8967 136.39 33.8967C134.96 33.8967 133.935 33.2569 133.278 31.9958L141.872 28.524L141.576 27.8105V27.8105ZM132.813 29.8995C132.74 27.4805 134.738 26.2415 136.169 26.2415C137.291 26.2415 138.242 26.7891 138.56 27.5727L132.813 29.8995V29.8995ZM125.828 35.9857H128.653V17.5482H125.828V35.9857ZM121.201 25.2182H121.107C120.472 24.4844 119.262 23.8206 117.728 23.8206C114.511 23.8206 111.568 26.5789 111.568 30.1152C111.568 33.6312 114.511 36.3673 117.728 36.3673C119.262 36.3673 120.472 35.6981 121.107 34.9421H121.201V35.8419C121.201 38.2406 119.889 39.5294 117.772 39.5294C116.046 39.5294 114.975 38.3125 114.533 37.2892L112.076 38.2904C112.785 39.9534 114.66 42 117.772 42C121.084 42 123.879 40.0972 123.879 35.4676V24.2023H121.201V25.2182V25.2182ZM117.97 33.8967C116.023 33.8967 114.393 32.3056 114.393 30.1152C114.393 27.9045 116.023 26.2913 117.97 26.2913C119.889 26.2913 121.401 27.9045 121.401 30.1152C121.401 32.3056 119.889 33.8967 117.97 33.8967V33.8967ZM154.802 17.5482H148.045V35.9857H150.863V28.9997H154.802C157.931 28.9997 161 26.7891 161 23.273C161 19.7588 157.924 17.5482 154.802 17.5482V17.5482ZM154.876 26.4351H150.863V20.1129H154.876C156.979 20.1129 158.18 21.8183 158.18 23.273C158.18 24.7001 156.979 26.4351 154.876 26.4351ZM172.293 23.7856C170.257 23.7856 168.14 24.6632 167.269 26.6084L169.77 27.6317C170.308 26.6084 171.297 26.2765 172.344 26.2765C173.805 26.2765 175.288 27.1338 175.31 28.6476V28.8412C174.8 28.5535 173.709 28.1276 172.366 28.1276C169.673 28.1276 166.929 29.575 166.929 32.2761C166.929 34.7467 169.135 36.3378 171.615 36.3378C173.511 36.3378 174.557 35.5026 175.214 34.531H175.31V35.9562H178.032V28.8836C178.032 25.6146 175.531 23.7856 172.293 23.7856ZM171.953 33.8893C171.031 33.8893 169.747 33.4432 169.747 32.3277C169.747 30.9006 171.348 30.353 172.735 30.353C173.975 30.353 174.557 30.6204 175.31 30.9725C175.089 32.6798 173.584 33.8893 171.953 33.8893V33.8893ZM187.946 24.1894L184.707 32.182H184.611L181.263 24.1894H178.224L183.255 35.3588L180.385 41.5741H183.329L191.081 24.1894H187.946V24.1894ZM162.548 35.9857H165.373V17.5482H162.548V35.9857Z" fill="white"/>
<path d="M15.7646 11.1196C15.3208 11.5732 15.064 12.2793 15.064 13.1938V45.8135C15.064 46.728 15.3208 47.4341 15.7646 47.8877L15.8741 47.9873L34.5959 29.7157V29.2843L15.8741 11.0127L15.7646 11.1196Z" fill="url(#paint2_linear_2_33)"/>
<path d="M40.8296 35.8093L34.5959 29.7157V29.2842L40.8372 23.1907L40.9769 23.2699L48.3682 27.376C50.4776 28.5412 50.4776 30.4587 48.3682 31.6313L40.9769 35.73L40.8296 35.8093V35.8093Z" fill="url(#paint3_linear_2_33)"/>
<path d="M40.977 35.73L34.596 29.5L15.7646 47.8877C16.4652 48.6068 17.6077 48.6934 18.9069 47.9744L40.977 35.73" fill="url(#paint4_linear_2_33)"/>
<path d="M40.977 23.27L18.9069 11.0256C17.6077 10.3139 16.4652 10.4006 15.7646 11.1197L34.596 29.5L40.977 23.27Z" fill="url(#paint5_linear_2_33)"/>
<defs>
<linearGradient id="paint0_linear_2_33" x1="256.5" y1="59" x2="1.04335e-05" y2="-4.02293e-05" gradientUnits="userSpaceOnUse">
<stop stop-color="#682CA1"/>
<stop offset="1" stop-color="#198DCF"/>
</linearGradient>
<linearGradient id="paint1_linear_2_33" x1="204" y1="30" x2="6.0778e-07" y2="30" gradientUnits="userSpaceOnUse">
<stop stop-color="#1A8BCE"/>
<stop offset="1" stop-color="#5741AB"/>
</linearGradient>
<linearGradient id="paint2_linear_2_33" x1="32.9337" y1="46.1532" x2="8.18673" y2="20.8066" gradientUnits="userSpaceOnUse">
<stop stop-color="#00A0FF"/>
<stop offset="0.0066" stop-color="#00A1FF"/>
<stop offset="0.2601" stop-color="#00BEFF"/>
<stop offset="0.5122" stop-color="#00D2FF"/>
<stop offset="0.7604" stop-color="#00DFFF"/>
<stop offset="1" stop-color="#00E3FF"/>
</linearGradient>
<linearGradient id="paint3_linear_2_33" x1="51.115" y1="29.4979" x2="14.5597" y2="29.4979" gradientUnits="userSpaceOnUse">
<stop stop-color="#FFE000"/>
<stop offset="0.4087" stop-color="#FFBD00"/>
<stop offset="0.7754" stop-color="#FFA500"/>
<stop offset="1" stop-color="#FF9C00"/>
</linearGradient>
<linearGradient id="paint4_linear_2_33" x1="37.5072" y1="26.1132" x2="3.9483" y2="-8.2588" gradientUnits="userSpaceOnUse">
<stop stop-color="#FF3A44"/>
<stop offset="1" stop-color="#C31162"/>
</linearGradient>
<linearGradient id="paint5_linear_2_33" x1="11.0243" y1="58.7401" x2="26.0099" y2="43.3916" gradientUnits="userSpaceOnUse">
<stop stop-color="#32A071"/>
<stop offset="0.0685" stop-color="#2DA771"/>
<stop offset="0.4762" stop-color="#15CF74"/>
<stop offset="0.8009" stop-color="#06E775"/>
<stop offset="1" stop-color="#00F076"/>
</linearGradient>
</defs>
</svg>
