<?xml version="1.0" encoding="UTF-8"?>
<!DOCTYPE svg PUBLIC "-//W3C//DTD SVG 1.1//EN" "http://www.w3.org/Graphics/SVG/1.1/DTD/svg11.dtd">
<!-- Creator: CorelDRAW 2021 (64-Bit) -->
<svg xmlns="http://www.w3.org/2000/svg" xml:space="preserve" width="3.71394in" height="4.03407in" version="1.1" style="shape-rendering:geometricPrecision; text-rendering:geometricPrecision; image-rendering:optimizeQuality; fill-rule:evenodd; clip-rule:evenodd"
viewBox="0 0 3668.44 3984.65"
 xmlns:xlink="http://www.w3.org/1999/xlink"
 xmlns:xodm="http://www.corel.com/coreldraw/odm/2003">
 <defs>
  <style type="text/css">
   <![CDATA[
    .fil0 {fill:#8B82DA}
   ]]>
  </style>
 </defs>
 <g id="Layer_x0020_1">
  <metadata id="CorelCorpID_0Corel-Layer"/>
  <g id="_2610508304864">
   <path class="fil0" d="M1838.07 3984.6c-272.47,3.17 -712.41,-164.61 -760.5,-344.13 -5.48,-20.41 -13.03,-62.64 7.04,-102.7 103.9,-207.32 269.39,-552.42 350.65,-553.02 92.56,-0.72 713.04,-0.72 805.6,0 81.27,0.61 246.79,345.7 350.69,553.02 20.05,40.07 12.53,82.29 7.05,102.7 -48.13,179.52 -488.07,347.29 -760.52,344.13zm-1013.77 -700.06c-30.43,37.87 -50.9,80.97 -130.36,93.37 -77.2,12.07 -106.85,-20.73 -145.26,-50.5 -121.87,-94.49 -223.01,-225.42 -311.53,-352.68 -94.24,-135.45 -177.34,-283.09 -220.89,-420.43 -12.95,-40.88 -22.76,-73.75 -10.95,-114.96 11.79,-41.2 53.21,-94.72 95.2,-103.36 209.64,-43.28 347.11,-58.67 544.86,-59.99 41.6,-0.3 64.14,-4.67 91.23,26.88 85.19,99.18 269.92,302.08 365.37,413.27 35.99,41.9 23.05,106.86 14.8,162.87 -68.72,99.24 -162.9,244.47 -292.45,405.54zm2019.81 -0.93c30.46,37.87 50.9,80.96 130.39,93.37 77.18,12.06 106.82,-20.74 145.23,-50.51 121.87,-94.48 223.04,-225.41 311.56,-352.68 94.24,-135.45 177.31,-283.08 220.87,-420.44 12.97,-40.87 22.76,-73.74 10.95,-114.94 -11.78,-41.21 -53.21,-94.72 -95.21,-103.37 -209.61,-43.29 -347.11,-58.66 -544.86,-59.99 -41.6,-0.3 -64.12,-4.66 -91.23,26.88 -85.15,99.18 -269.87,302.08 -365.35,413.26 -35.97,41.9 -23.03,106.86 -14.78,162.87 68.72,99.24 162.9,244.47 292.41,405.53zm-1013.25 -626.8c0,0 -225.77,0.37 -336.31,0.37 -34.91,0 -67.96,-15.96 -89.82,-43.34 -84.6,-106.11 -314.97,-369.72 -396.08,-495.39 -21.01,-32.51 -14.04,-94.57 0,-130.66 55.88,-143.55 195.75,-436.14 279.75,-621.35 34.44,-75.91 109.74,-124.64 192.66,-124.64l699.59 0c82.92,0 158.2,48.73 192.67,124.64 84.01,185.21 223.88,477.8 279.74,621.35 14.06,36.09 20.98,98.15 0,130.66 -81.12,125.67 -311.5,389.28 -396.08,495.39 -21.85,27.39 -54.91,43.34 -89.82,43.34 -110.53,0 -336.31,-0.37 -336.31,-0.37zm-1660.87 -681.69c-38.74,-2.83 -89.31,-50.12 -112.18,-88.88 -20.44,-34.61 -9.55,-109.83 -2.99,-148.58 12.17,-71.9 60.56,-256.2 149.66,-447.25 98.61,-211.44 268.19,-408 315.96,-465.22 43.47,-52.11 190.77,-41.51 214.71,-10.11 66.09,86.75 193.95,235.01 265.08,374.08 7.6,19.51 12.32,71.82 4.13,99.72 -36.78,125.46 -244.68,561.87 -273.12,587.4 -48.68,43.64 -74.49,57.37 -122.96,73.9 -88.33,16.58 -348.68,31.48 -438.28,24.95zm3328.46 -0.93c38.74,-2.83 89.31,-50.11 112.16,-88.89 20.43,-34.62 9.54,-109.83 3.01,-148.57 -12.17,-71.91 -60.56,-256.21 -149.66,-447.25 -98.6,-211.45 -268.19,-408 -315.96,-465.22 -43.49,-52.11 -190.8,-41.51 -214.73,-10.12 -66.1,86.75 -193.96,235.02 -265.09,374.08 -7.55,19.51 -12.28,71.83 -4.12,99.72 36.81,125.46 244.68,561.87 273.15,587.4 48.64,43.64 74.47,57.36 122.96,73.89 88.32,16.62 348.65,31.48 438.28,24.95zm-1664.12 -1005.37c-195.71,0.39 -398.16,0.25 -517.44,-1.47 -81.15,-1.18 -420.58,-343.75 -386.27,-522.99 39.73,-207.26 552.57,-447.4 903.72,-444.33 351.18,-3.06 864.88,235.62 904.58,442.89 34.35,179.25 -305.96,523.25 -387.11,524.43 -119.29,1.71 -321.74,1.86 -517.48,1.47z"/>
  </g>
 </g>
</svg>
